<svg xmlns="http://www.w3.org/2000/svg" version="1.1" xmlns:xlink="http://www.w3.org/1999/xlink" xmlns:svgjs="http://svgjs.com/svgjs" width="1000" height="1000"><rect width="1000" height="1000" rx="500" ry="500" fill="#1b76bb"></rect><g transform="matrix(2.5,0,0,2.5,-11.866962432861328,-60.00006866455078)"><svg xmlns="http://www.w3.org/2000/svg" version="1.1" xmlns:xlink="http://www.w3.org/1999/xlink" xmlns:svgjs="http://svgjs.com/svgjs" width="400" height="400"><svg version="1.1" id="svg2" width="400" height="400" viewBox="0 0 400 400" sodipodi:docname="Mark - small square - outline.ai" xmlns:inkscape="http://www.inkscape.org/namespaces/inkscape" xmlns:sodipodi="http://sodipodi.sourceforge.net/DTD/sodipodi-0.dtd" xmlns="http://www.w3.org/2000/svg" xmlns:svg="http://www.w3.org/2000/svg">
  <defs id="defs6">
    <clipPath clipPathUnits="userSpaceOnUse" id="clipPath16">
      <path d="M 0,900 H 1600 V 0 H 0 Z" id="path14"></path>
    </clipPath>
  </defs>
  <sodipodi:namedview id="namedview4" pagecolor="#ffffff" bordercolor="#000000" borderopacity="0.25" inkscape:showpageshadow="2" inkscape:pageopacity="0.0" inkscape:pagecheckerboard="0" inkscape:deskcolor="#d1d1d1"></sodipodi:namedview>
  <g id="g8" inkscape:groupmode="layer" inkscape:label="Mark - small square - outline" transform="matrix(1.3333333,0,0,-1.3333333,-653.33333,960)">
    <g id="g10">
      <g id="g12" clip-path="url(#clipPath16)">
        <g id="g18" transform="translate(640,520)">
          <path d="M 0,0 C -18.003,0 -33.779,9.519 -42.583,23.795 L -68.133,8.072 C -54.047,-14.77 -28.806,-30 0,-30 44.182,-30 80,5.815 80,50 H 50 C 50,22.385 27.613,0 0,0" style="fill:#ffffff;fill-opacity:1;fill-rule:nonzero;stroke:none" id="path20"></path>
        </g>
        <g id="g22" transform="translate(660,570)">
          <path d="m 0,0 c 0,-11.046 -8.954,-20 -20,-20 -11.046,0 -20,8.954 -20,20 0,11.045 8.954,20 20,20 C -8.954,20 0,11.045 0,0" style="fill:#ffffff;fill-opacity:1;fill-rule:nonzero;stroke:none" id="path24"></path>
        </g>
      </g>
    </g>
  </g>
</svg></svg></g></svg>